<mxfile host="Electron" agent="Mozilla/5.0 (Macintosh; Intel Mac OS X 10_15_7) AppleWebKit/537.36 (KHTML, like Gecko) draw.io/26.0.9 Chrome/128.0.6613.186 Electron/32.2.5 Safari/537.36" version="26.0.9">
  <diagram name="Page-1" id="5JZE1pWEXm2l9OQPcfNp">
    <mxGraphModel dx="2096" dy="134" grid="0" gridSize="10" guides="1" tooltips="1" connect="1" arrows="1" fold="1" page="0" pageScale="1" pageWidth="827" pageHeight="1169" math="0" shadow="0">
      <root>
        <mxCell id="0" />
        <mxCell id="1" parent="0" />
        <mxCell id="jBiA-Ghh7BrdRVS92awE-2" value="" style="fillColor=none;strokeColor=#006600;dashed=1;verticalAlign=top;fontStyle=0;fontColor=#006633;whiteSpace=wrap;html=1;strokeWidth=1;fontSize=11;" vertex="1" parent="1">
          <mxGeometry x="-491" y="770" width="471" height="350" as="geometry" />
        </mxCell>
        <mxCell id="jBiA-Ghh7BrdRVS92awE-26" value="&lt;span&gt;Action Groups&lt;/span&gt;" style="whiteSpace=wrap;html=1;verticalAlign=top;fillColor=none;strokeColor=#CC00CC;fontColor=#000000;sketch=0;dashed=1;fontStyle=0;strokeWidth=1;spacingLeft=0;align=center;fontSize=11;" vertex="1" parent="1">
          <mxGeometry x="-260" y="810" width="160" height="290" as="geometry" />
        </mxCell>
        <mxCell id="jBiA-Ghh7BrdRVS92awE-4" style="edgeStyle=orthogonalEdgeStyle;rounded=0;orthogonalLoop=1;jettySize=auto;html=1;fontSize=11;" edge="1" parent="1" source="jBiA-Ghh7BrdRVS92awE-5" target="jBiA-Ghh7BrdRVS92awE-10">
          <mxGeometry relative="1" as="geometry" />
        </mxCell>
        <mxCell id="jBiA-Ghh7BrdRVS92awE-19" style="edgeStyle=orthogonalEdgeStyle;rounded=0;orthogonalLoop=1;jettySize=auto;html=1;startArrow=classic;startFill=1;endArrow=oval;endFill=0;fontSize=11;" edge="1" parent="1" source="jBiA-Ghh7BrdRVS92awE-5">
          <mxGeometry relative="1" as="geometry">
            <mxPoint x="-560" y="932.5" as="targetPoint" />
          </mxGeometry>
        </mxCell>
        <mxCell id="jBiA-Ghh7BrdRVS92awE-20" value="Invoke Agent" style="edgeLabel;html=1;align=center;verticalAlign=middle;resizable=0;points=[];fontSize=11;" vertex="1" connectable="0" parent="jBiA-Ghh7BrdRVS92awE-19">
          <mxGeometry x="0.5403" relative="1" as="geometry">
            <mxPoint y="11" as="offset" />
          </mxGeometry>
        </mxCell>
        <mxCell id="jBiA-Ghh7BrdRVS92awE-5" value="&lt;div&gt;&lt;b&gt;Supervisor Agent&lt;/b&gt;&lt;/div&gt;" style="sketch=0;points=[[0,0,0],[0.25,0,0],[0.5,0,0],[0.75,0,0],[1,0,0],[0,1,0],[0.25,1,0],[0.5,1,0],[0.75,1,0],[1,1,0],[0,0.25,0],[0,0.5,0],[0,0.75,0],[1,0.25,0],[1,0.5,0],[1,0.75,0]];outlineConnect=0;fontColor=#232F3E;fillColor=#01A88D;strokeColor=#ffffff;dashed=0;verticalLabelPosition=top;verticalAlign=bottom;align=center;html=1;fontSize=11;fontStyle=0;aspect=fixed;shape=mxgraph.aws4.resourceIcon;resIcon=mxgraph.aws4.bedrock;labelPosition=center;" vertex="1" parent="1">
          <mxGeometry x="-458" y="905" width="55" height="55" as="geometry" />
        </mxCell>
        <mxCell id="jBiA-Ghh7BrdRVS92awE-6" value="&lt;div&gt;CutTicket&lt;/div&gt;&lt;div&gt;getTicket&lt;/div&gt;" style="whiteSpace=wrap;html=1;verticalAlign=middle;fillColor=#FFFFFF;strokeColor=#057a2e;fontColor=#000000;sketch=0;dashed=1;fontStyle=0;strokeWidth=1;fontSize=11;" vertex="1" parent="1">
          <mxGeometry x="-238" y="943.25" width="128" height="42.5" as="geometry" />
        </mxCell>
        <mxCell id="jBiA-Ghh7BrdRVS92awE-7" value="&lt;b&gt;Amazon Bedrock&amp;nbsp;&lt;/b&gt;&lt;div&gt;&lt;b&gt;Multi Agent Collaboration System&lt;/b&gt;&lt;div&gt;&lt;br&gt;&lt;/div&gt;&lt;/div&gt;" style="sketch=0;points=[[0,0,0],[0.25,0,0],[0.5,0,0],[0.75,0,0],[1,0,0],[0,1,0],[0.25,1,0],[0.5,1,0],[0.75,1,0],[1,1,0],[0,0.25,0],[0,0.5,0],[0,0.75,0],[1,0.25,0],[1,0.5,0],[1,0.75,0]];outlineConnect=0;fontColor=#232F3E;fillColor=#01A88D;strokeColor=#ffffff;dashed=0;verticalLabelPosition=middle;verticalAlign=middle;align=left;html=1;fontSize=11;fontStyle=0;aspect=fixed;shape=mxgraph.aws4.resourceIcon;resIcon=mxgraph.aws4.bedrock;labelPosition=right;" vertex="1" parent="1">
          <mxGeometry x="-491" y="770" width="41" height="41" as="geometry" />
        </mxCell>
        <mxCell id="jBiA-Ghh7BrdRVS92awE-9" style="edgeStyle=orthogonalEdgeStyle;rounded=0;orthogonalLoop=1;jettySize=auto;html=1;fontSize=11;startArrow=none;startFill=0;dashed=1;endArrow=none;" edge="1" parent="1" source="jBiA-Ghh7BrdRVS92awE-10" target="jBiA-Ghh7BrdRVS92awE-6">
          <mxGeometry relative="1" as="geometry" />
        </mxCell>
        <mxCell id="jBiA-Ghh7BrdRVS92awE-10" value="&lt;b&gt;Orders&amp;nbsp;&lt;/b&gt;&lt;div&gt;&lt;b&gt;Support Agent&lt;/b&gt;&lt;/div&gt;" style="sketch=0;points=[[0,0,0],[0.25,0,0],[0.5,0,0],[0.75,0,0],[1,0,0],[0,1,0],[0.25,1,0],[0.5,1,0],[0.75,1,0],[1,1,0],[0,0.25,0],[0,0.5,0],[0,0.75,0],[1,0.25,0],[1,0.5,0],[1,0.75,0]];outlineConnect=0;fontColor=#232F3E;fillColor=#01A88D;strokeColor=#ffffff;dashed=0;verticalLabelPosition=bottom;verticalAlign=top;align=center;html=1;fontSize=11;fontStyle=0;aspect=fixed;shape=mxgraph.aws4.resourceIcon;resIcon=mxgraph.aws4.bedrock;labelPosition=center;" vertex="1" parent="1">
          <mxGeometry x="-338" y="937" width="55" height="55" as="geometry" />
        </mxCell>
        <mxCell id="jBiA-Ghh7BrdRVS92awE-13" value="&lt;div&gt;Escalation&lt;/div&gt;&lt;div&gt;&lt;span style=&quot;background-color: transparent; color: light-dark(rgb(0, 0, 0), rgb(237, 237, 237));&quot;&gt;(Return Control)&lt;/span&gt;&lt;br&gt;&lt;/div&gt;" style="whiteSpace=wrap;html=1;verticalAlign=middle;fillColor=#FFFFFF;strokeColor=#057a2e;fontColor=#000000;sketch=0;dashed=1;fontStyle=0;strokeWidth=1;fontSize=11;" vertex="1" parent="1">
          <mxGeometry x="-236" y="1036.5" width="126" height="51" as="geometry" />
        </mxCell>
        <mxCell id="jBiA-Ghh7BrdRVS92awE-14" value="&lt;span&gt;OrdersStatus&lt;/span&gt;" style="whiteSpace=wrap;html=1;verticalAlign=middle;fillColor=#FFFFFF;strokeColor=#057a2e;fontColor=#000000;sketch=0;dashed=1;fontStyle=0;strokeWidth=1;spacingLeft=0;align=center;fontSize=11;" vertex="1" parent="1">
          <mxGeometry x="-243" y="843.5" width="133" height="45.5" as="geometry" />
        </mxCell>
        <mxCell id="jBiA-Ghh7BrdRVS92awE-15" style="edgeStyle=orthogonalEdgeStyle;rounded=0;orthogonalLoop=1;jettySize=auto;html=1;fontSize=11;startArrow=none;startFill=0;dashed=1;endArrow=none;" edge="1" parent="1" source="jBiA-Ghh7BrdRVS92awE-16" target="jBiA-Ghh7BrdRVS92awE-14">
          <mxGeometry relative="1" as="geometry" />
        </mxCell>
        <mxCell id="jBiA-Ghh7BrdRVS92awE-16" value="&lt;b&gt;&lt;font&gt;Order Status&lt;/font&gt;&lt;/b&gt;" style="sketch=0;points=[[0,0,0],[0.25,0,0],[0.5,0,0],[0.75,0,0],[1,0,0],[0,1,0],[0.25,1,0],[0.5,1,0],[0.75,1,0],[1,1,0],[0,0.25,0],[0,0.5,0],[0,0.75,0],[1,0.25,0],[1,0.5,0],[1,0.75,0]];outlineConnect=0;fontColor=#232F3E;fillColor=#01A88D;strokeColor=#ffffff;dashed=0;verticalLabelPosition=bottom;verticalAlign=top;align=center;html=1;fontSize=11;fontStyle=0;aspect=fixed;shape=mxgraph.aws4.resourceIcon;resIcon=mxgraph.aws4.bedrock;labelPosition=center;" vertex="1" parent="1">
          <mxGeometry x="-338" y="839" width="55" height="55" as="geometry" />
        </mxCell>
        <mxCell id="jBiA-Ghh7BrdRVS92awE-17" style="edgeStyle=orthogonalEdgeStyle;rounded=0;orthogonalLoop=1;jettySize=auto;html=1;entryX=0;entryY=0.5;entryDx=0;entryDy=0;entryPerimeter=0;fontSize=11;" edge="1" parent="1" source="jBiA-Ghh7BrdRVS92awE-5" target="jBiA-Ghh7BrdRVS92awE-16">
          <mxGeometry relative="1" as="geometry" />
        </mxCell>
        <mxCell id="jBiA-Ghh7BrdRVS92awE-22" style="edgeStyle=orthogonalEdgeStyle;rounded=0;orthogonalLoop=1;jettySize=auto;html=1;fontSize=11;startArrow=none;startFill=0;dashed=1;endArrow=none;" edge="1" parent="1" source="jBiA-Ghh7BrdRVS92awE-21" target="jBiA-Ghh7BrdRVS92awE-13">
          <mxGeometry relative="1" as="geometry" />
        </mxCell>
        <mxCell id="jBiA-Ghh7BrdRVS92awE-21" value="&lt;div&gt;&lt;b&gt;Escalations Agent&lt;/b&gt;&lt;/div&gt;" style="sketch=0;points=[[0,0,0],[0.25,0,0],[0.5,0,0],[0.75,0,0],[1,0,0],[0,1,0],[0.25,1,0],[0.5,1,0],[0.75,1,0],[1,1,0],[0,0.25,0],[0,0.5,0],[0,0.75,0],[1,0.25,0],[1,0.5,0],[1,0.75,0]];outlineConnect=0;fontColor=#232F3E;fillColor=#01A88D;strokeColor=#ffffff;dashed=0;verticalLabelPosition=bottom;verticalAlign=top;align=center;html=1;fontSize=11;fontStyle=0;aspect=fixed;shape=mxgraph.aws4.resourceIcon;resIcon=mxgraph.aws4.bedrock;labelPosition=center;" vertex="1" parent="1">
          <mxGeometry x="-338" y="1034.5" width="55" height="55" as="geometry" />
        </mxCell>
        <mxCell id="jBiA-Ghh7BrdRVS92awE-23" style="edgeStyle=orthogonalEdgeStyle;rounded=0;orthogonalLoop=1;jettySize=auto;html=1;entryX=0;entryY=0.5;entryDx=0;entryDy=0;entryPerimeter=0;fontSize=11;" edge="1" parent="1" source="jBiA-Ghh7BrdRVS92awE-5" target="jBiA-Ghh7BrdRVS92awE-21">
          <mxGeometry relative="1" as="geometry" />
        </mxCell>
        <mxCell id="jBiA-Ghh7BrdRVS92awE-31" style="edgeStyle=orthogonalEdgeStyle;rounded=0;orthogonalLoop=1;jettySize=auto;html=1;endArrow=none;startFill=0;strokeWidth=1;dashed=1;fontSize=11;" edge="1" parent="1" source="jBiA-Ghh7BrdRVS92awE-27" target="jBiA-Ghh7BrdRVS92awE-29">
          <mxGeometry relative="1" as="geometry" />
        </mxCell>
        <mxCell id="jBiA-Ghh7BrdRVS92awE-27" value="" style="outlineConnect=0;dashed=0;verticalLabelPosition=bottom;verticalAlign=top;align=center;html=1;shape=mxgraph.aws3.lambda_function;fillColor=#F58534;gradientColor=none;fontSize=11;" vertex="1" parent="1">
          <mxGeometry x="-135" y="856.5" width="19.17" height="20" as="geometry" />
        </mxCell>
        <mxCell id="jBiA-Ghh7BrdRVS92awE-33" style="edgeStyle=orthogonalEdgeStyle;rounded=0;orthogonalLoop=1;jettySize=auto;html=1;endArrow=none;startFill=0;strokeWidth=1;dashed=1;fontSize=11;" edge="1" parent="1" source="jBiA-Ghh7BrdRVS92awE-28" target="jBiA-Ghh7BrdRVS92awE-32">
          <mxGeometry relative="1" as="geometry" />
        </mxCell>
        <mxCell id="jBiA-Ghh7BrdRVS92awE-28" value="" style="outlineConnect=0;dashed=0;verticalLabelPosition=bottom;verticalAlign=top;align=center;html=1;shape=mxgraph.aws3.lambda_function;fillColor=#F58534;gradientColor=none;fontSize=11;" vertex="1" parent="1">
          <mxGeometry x="-140" y="954.5" width="19.17" height="20" as="geometry" />
        </mxCell>
        <mxCell id="jBiA-Ghh7BrdRVS92awE-29" value="orders" style="sketch=0;points=[[0,0,0],[0.25,0,0],[0.5,0,0],[0.75,0,0],[1,0,0],[0,1,0],[0.25,1,0],[0.5,1,0],[0.75,1,0],[1,1,0],[0,0.25,0],[0,0.5,0],[0,0.75,0],[1,0.25,0],[1,0.5,0],[1,0.75,0]];outlineConnect=0;fontColor=#232F3E;fillColor=#C925D1;strokeColor=#ffffff;dashed=0;verticalLabelPosition=bottom;verticalAlign=top;align=center;html=1;fontSize=11;fontStyle=0;aspect=fixed;shape=mxgraph.aws4.resourceIcon;resIcon=mxgraph.aws4.dynamodb;" vertex="1" parent="1">
          <mxGeometry x="-90" y="850" width="32.5" height="32.5" as="geometry" />
        </mxCell>
        <mxCell id="jBiA-Ghh7BrdRVS92awE-32" value="tickets" style="sketch=0;points=[[0,0,0],[0.25,0,0],[0.5,0,0],[0.75,0,0],[1,0,0],[0,1,0],[0.25,1,0],[0.5,1,0],[0.75,1,0],[1,1,0],[0,0.25,0],[0,0.5,0],[0,0.75,0],[1,0.25,0],[1,0.5,0],[1,0.75,0]];outlineConnect=0;fontColor=#232F3E;fillColor=#C925D1;strokeColor=#ffffff;dashed=0;verticalLabelPosition=bottom;verticalAlign=top;align=center;html=1;fontSize=11;fontStyle=0;aspect=fixed;shape=mxgraph.aws4.resourceIcon;resIcon=mxgraph.aws4.dynamodb;" vertex="1" parent="1">
          <mxGeometry x="-90" y="948.25" width="32.5" height="32.5" as="geometry" />
        </mxCell>
        <mxCell id="jBiA-Ghh7BrdRVS92awE-34" value="AWS IAM" style="shape=image;verticalLabelPosition=top;verticalAlign=bottom;imageAspect=0;aspect=fixed;image=data:image/svg+xml,PD94bWwgdmVyc2lvbj0iMS4wIiBlbmNvZGluZz0iVVRGLTgiPz4KPHN2ZyB3aWR0aD0iNjRweCIgaGVpZ2h0PSI2NHB4IiB2aWV3Qm94PSIwIDAgNjQgNjQiIHZlcnNpb249IjEuMSIgeG1sbnM9Imh0dHA6Ly93d3cudzMub3JnLzIwMDAvc3ZnIiB4bWxuczp4bGluaz0iaHR0cDovL3d3dy53My5vcmcvMTk5OS94bGluayI+CiAgICA8dGl0bGU+SWNvbi1BcmNoaXRlY3R1cmUvNDgvQXJjaF9BV1MtSUFNLUlkZW50aXR5LUNlbnRlcl80ODwvdGl0bGU+CiAgICA8ZyBpZD0iSWNvbi1BcmNoaXRlY3R1cmUvNDgvQXJjaF9BV1MtSUFNLUlkZW50aXR5LUNlbnRlcl80OCIgc3Ryb2tlPSJub25lIiBzdHJva2Utd2lkdGg9IjEiIGZpbGw9Im5vbmUiIGZpbGwtcnVsZT0iZXZlbm9kZCI+CiAgICAgICAgPGcgaWQ9Ikljb24tQXJjaGl0ZWN0dXJlLUJHLzQ4L1NlY3VyaXR5LUlkZW50aXR5LUNvbXBsaWFuY2UiIGZpbGw9IiNERDM0NEMiPgogICAgICAgICAgICA8cmVjdCBpZD0iUmVjdGFuZ2xlIiB4PSIwIiB5PSIwIiB3aWR0aD0iNjQiIGhlaWdodD0iNjQiPjwvcmVjdD4KICAgICAgICA8L2c+CiAgICAgICAgPHBhdGggZD0iTTUyLjAzMiw0OS4yMzUwMTQ4IEw0MS40NCwzOC42NDMwMTQ4IEM0MS4xMzQsMzguMzM3MDE0OCA0MS4wNTksMzcuODY3MDE0OCA0MS4yNTcsMzcuNDgyMDE0OCBDNDIuNjE3LDM0LjgxODAxNDggNDIuMTE3LDMxLjYxNDAxNDggNDAuMDEzLDI5LjUwOTAxNDggQzM4LjQ5OCwyNy45OTQwMTQ4IDM2LjQwOCwyNy4yNzMwMTQ4IDM0LjI3NCwyNy41MzAwMTQ4IEMzMi4xNDEsMjcuNzg3MDE0OCAzMC4yNjEsMjkuMDIwMDE0OCAyOS4xMTQsMzAuOTExMDE0OCBDMjcuNzcsMzMuMTI3MDE0OCAyNy44MywzNS45NjkwMTQ4IDI5LjI2NiwzOC4xNTMwMTQ4IEMzMS4yNTMsNDEuMTc1MDE0OCAzNS4wMzEsNDIuMTU1MDE0OCAzOC4yNDcsNDAuNDg3MDE0OCBDMzguNjM0LDQwLjI4NjAxNDggMzkuMTA2LDQwLjM1ODAxNDggMzkuNDE1LDQwLjY2ODAxNDggTDQxLjIwOCw0Mi40NjAwMTQ4IEM0MS40MTUsNDIuNjY3MDE0OCA0MS41MjEsNDIuOTU1MDE0OCA0MS40OTgsNDMuMjQ3MDE0OCBMNDEuMzM2LDQ1LjI1OTAxNDggTDQzLjM0Nyw0NS4wOTcwMTQ4IEM0My42MzYsNDUuMDY4MDE0OCA0My45MjgsNDUuMTc5MDE0OCA0NC4xMzUsNDUuMzg3MDE0OCBMNDUuMTEsNDYuMzYyMDE0OCBDNDUuMzE3LDQ2LjU2OTAxNDggNDUuNDI0LDQ2Ljg1ODAxNDggNDUuNCw0Ny4xNTAwMTQ4IEw0NS4yMzgsNDkuMTYxMDE0OCBMNDcuMjUsNDkuMDAwMDE0OCBDNDcuNTQsNDguOTY4MDE0OCA0Ny44Myw0OS4wODIwMTQ4IDQ4LjAzNyw0OS4yODkwMTQ4IEw0OS41LDUwLjc1MjAxNDggTDUyLjAxMSw1MS4xMzgwMTQ4IEw1Mi4wMzIsNDkuMjM1MDE0OCBaIE01NC4wMzYwNjIsNDguODM2MDE0OCBMNTQsNTIuMzExMDE0OCBDNTMuOTk3LDUyLjYwMTAxNDggNTMuODY4LDUyLjg3NjAxNDggNTMuNjQ3LDUzLjA2MzAxNDggQzUzLjQ2Niw1My4yMTgwMTQ4IDUzLjIzNSw1My4zMDEwMTQ4IDUzLDUzLjMwMTAxNDggQzUyLjk0OSw1My4zMDEwMTQ4IDUyLjg5OCw1My4yOTcwMTQ4IDUyLjg0OCw1My4yODkwMTQ4IEw0OC44NzMsNTIuNjc5MDE0OCBDNDguNjYyLDUyLjY0NzAxNDggNDguNDY4LDUyLjU0ODAxNDggNDguMzE3LDUyLjM5ODAxNDggTDQ2Ljk0OSw1MS4wMzAwMTQ4IEw0NC4yMjcsNTEuMjQ5MDE0OCBDNDMuOTM3LDUxLjI3MjAxNDggNDMuNjQ3LDUxLjE2NjAxNDggNDMuNDQsNTAuOTU5MDE0OCBDNDMuMjMzLDUwLjc1MjAxNDggNDMuMTI3LDUwLjQ2NDAxNDggNDMuMTUsNTAuMTcyMDE0OCBMNDMuMzY5LDQ3LjQ1MDAxNDggTDQzLjA0Nyw0Ny4xMjgwMTQ4IEw0MC4zMjUsNDcuMzQ2MDE0OCBDNDAuMDI3LDQ3LjM3MjAxNDggMzkuNzQ2LDQ3LjI2NDAxNDggMzkuNTM4LDQ3LjA1NzAxNDggQzM5LjMzMSw0Ni44NTAwMTQ4IDM5LjIyNCw0Ni41NjIwMTQ4IDM5LjI0OCw0Ni4yNzAwMTQ4IEwzOS40NjcsNDMuNTQ4MDE0OCBMMzguNDk2LDQyLjU3NzAxNDggQzM0LjU1NSw0NC4yMzAwMTQ4IDI5Ljk3Nyw0Mi44NzcwMTQ4IDI3LjU5NSwzOS4yNTIwMTQ4IEMyNS43MzcsMzYuNDI3MDE0OCAyNS42NjIsMzIuNzQ2MDE0OCAyNy40MDMsMjkuODc0MDE0OCBDMjguODcxLDI3LjQ1NDAxNDggMzEuMjg4LDI1Ljg3NjAxNDggMzQuMDM1LDI1LjU0NDAxNDggQzM2Ljc3NiwyNS4yMTQwMTQ4IDM5LjQ3NSwyNi4xNDIwMTQ4IDQxLjQyOCwyOC4wOTUwMTQ4IEM0My45NzIsMzAuNjQwMDE0OCA0NC43MDIsMzQuNDI3MDE0OCA0My4zNDYsMzcuNzIxMDE0OCBMNTMuNzQzLDQ4LjExODAxNDggQzUzLjkzMyw0OC4zMDgwMTQ4IDU0LjAzOSw0OC41NjcwMTQ4IDU0LjAzNjA2Miw0OC44MzYwMTQ4IEw1NC4wMzYwNjIsNDguODM2MDE0OCBaIE0zNi4yNTgsMzMuNDEzMDE0OCBDMzUuOTgxLDMzLjEzNzAxNDggMzUuNjE5LDMzLjAwMDAxNDggMzUuMjU4LDMzLjAwMDAxNDggQzM0Ljg5NSwzMy4wMDAwMTQ4IDM0LjUzMywzMy4xMzcwMTQ4IDM0LjI1NywzMy40MTMwMTQ4IEMzMy43MDYsMzMuOTY0MDE0OCAzMy43MDYsMzQuODYyMDE0OCAzNC4yNTcsMzUuNDE0MDE0OCBDMzQuODA5LDM1Ljk2NTAxNDggMzUuNzA3LDM1Ljk2NTAxNDggMzYuMjU4LDM1LjQxMzAxNDggQzM2LjgwOSwzNC44NjIwMTQ4IDM2LjgwOSwzMy45NjQwMTQ4IDM2LjI1OCwzMy40MTMwMTQ4IEwzNi4yNTgsMzMuNDEzMDE0OCBaIE0zNy42NzIsMzEuOTk5MDE0OCBDMzguMzE3LDMyLjY0NDAxNDggMzguNjcyLDMzLjUwMjAxNDggMzguNjcyLDM0LjQxNDAxNDggQzM4LjY3MiwzNS4zMjUwMTQ4IDM4LjMxNywzNi4xODMwMTQ4IDM3LjY3MiwzNi44MjgwMTQ4IEwzNy42NzIsMzYuODI4MDE0OCBDMzcuMDA2LDM3LjQ5MzAxNDggMzYuMTMyLDM3LjgyNjAxNDggMzUuMjU4LDM3LjgyNjAxNDggQzM0LjM4MywzNy44MjYwMTQ4IDMzLjUwOSwzNy40OTMwMTQ4IDMyLjg0MywzNi44MjgwMTQ4IEMzMS41MTIsMzUuNDk2MDE0OCAzMS41MTIsMzMuMzMxMDE0OCAzMi44NDMsMzIuMDAwMDE0OCBDMzQuMTcyLDMwLjY2ODAxNDggMzYuMzM5LDMwLjY2NjAxNDggMzcuNjcyLDMxLjk5OTAxNDggTDM3LjY3MiwzMS45OTkwMTQ4IFogTTE5LjAwMiwzNi45OTMwMTQ4IEwyNCwzNi45OTMwMTQ4IEwyNCwzOC45OTMwMTQ4IEwxOSwzOC45OTMwMTQ4IEMxNC4xMTYsMzguOTgzMDE0OCAxMC4yNTYsMzUuNzY3MDE0OCAxMC4wMTksMzEuNTE0MDE0OCBDMTAuMDA5LDMxLjMyNTAxNDggMTAsMzEuMTMxMDE0OCAxMCwzMC45MzYwMTQ4IEMxMCwyNS43MzQwMTQ4IDEzLjUyLDIzLjcyMzAxNDggMTUuNzEsMjIuOTc3MDE0OCBDMTUuNzAxLDIyLjc5MjAxNDggMTUuNjk2LDIyLjYwNzAxNDggMTUuNjk2LDIyLjQxOTAxNDggQzE1LjY5NiwxOC4wNzkwMTQ4IDE4LjY3NSwxMy41ODUwMTQ4IDIyLjYyNiwxMS45NjUwMTQ4IEMyNy4yMzMsMTAuMDYyMDE0OCAzMi4xMTUsMTEuMDA4MDE0OCAzNS42ODIsMTQuNDk4MDE0OCBDMzYuNTY5LDE1LjM1NTAxNDggMzcuNjksMTYuNjE2MDE0OCAzOC41MjEsMTguMTUzMDE0OCBDMzkuMzksMTcuNDQ4MDE0OCA0MC4zNjcsMTcuMTAyMDE0OCA0MS40NzYsMTcuMTAyMDE0OCBDNDMuODA1LDE3LjEwMjAxNDggNDYuNDEzLDE4Ljk3OTAxNDggNDYuOTI4LDIzLjA3NjAxNDggQzUxLjYyMiwyNC4yMTcwMTQ4IDU0LDI2LjkwNDAxNDggNTQsMzEuMDY5MDE0OCBDNTQsMzQuMTU0MDE0OCA1Mi44MTQsMzguMDMyMDE0OCA0Ny4xNjUsMzguOTgwMDE0OCBMNDYuODM1LDM3LjAwNzAxNDggQzUwLjM1OCwzNi40MTYwMTQ4IDUyLDM0LjUyOTAxNDggNTIsMzEuMDY5MDE0OCBDNTIsMjcuNjg4MDE0OCA1MC4wMzEsMjUuNzIwMDE0OCA0NS44MDMsMjQuODc2MDE0OCBDNDUuMzU4LDI0Ljc4NzAxNDggNDUuMDI4LDI0LjQwODAxNDggNDUuMDAyLDIzLjk1NDAxNDggQzQ0LjgzNCwyMS4wOTcwMTQ4IDQzLjM4NCwxOS4xMDIwMTQ4IDQxLjQ3NiwxOS4xMDIwMTQ4IEM0MC41MTcsMTkuMTAyMDE0OCAzOS43NiwxOS41MzcwMTQ4IDM5LjAxOSwyMC41MTMwMTQ4IEMzOC43OTksMjAuODA0MDE0OCAzOC40NCwyMC45NTYwMTQ4IDM4LjA3NCwyMC44OTgwMTQ4IEMzNy43MTIsMjAuODQ0MDE0OCAzNy40MDksMjAuNTk2MDE0OCAzNy4yODMsMjAuMjUzMDE0OCBDMzYuNjE4LDE4LjQzMDAxNDggMzUuMjg3LDE2Ljg5NzAxNDggMzQuMjg4LDE1LjkzMjAxNDggQzMxLjMwNywxMy4wMTQwMTQ4IDI3LjIzNCwxMi4yMjQwMTQ4IDIzLjM4NiwxMy44MTUwMTQ4IEMyMC4xOTQsMTUuMTI0MDE0OCAxNy42OTYsMTguOTAyMDE0OCAxNy42OTYsMjIuNDE5MDE0OCBDMTcuNjk2LDIyLjgxMTAxNDggMTcuNzE5LDIzLjE5MTAxNDggMTcuNzY3LDIzLjU3ODAxNDggQzE3Ljc3MSwyMy42MTMwMTQ4IDE3Ljc3NCwyMy42NDgwMTQ4IDE3Ljc3NSwyMy42ODMwMTQ4IEwxNy43NzUsMjMuNjg1MDE0OCBMMTcuNzc1LDIzLjY4NjAxNDggTDE3Ljc3NSwyMy42ODcwMTQ4IEwxNy43NzUsMjMuNjg4MDE0OCBMMTcuNzc1LDIzLjY4OTAxNDggTDE3Ljc3NSwyMy42OTAwMTQ4IEwxNy43NzUsMjMuNjkxMDE0OCBMMTcuNzc1LDIzLjY5MjAxNDggTDE3Ljc3NSwyMy42OTMwMTQ4IEwxNy43NzUsMjMuNjk1MDE0OCBMMTcuNzc1LDIzLjY5NjAxNDggTDE3Ljc3NSwyMy42OTgwMTQ4IEwxNy43NzUsMjMuNzAwMDE0OCBMMTcuNzc1LDIzLjcwMTAxNDggTDE3Ljc3NSwyMy43MDIwMTQ4IEwxNy43NzUsMjMuNzA0MDE0OCBDMTcuNzc1LDI0LjIwMzAxNDggMTcuNDEsMjQuNjIwMDE0OCAxNi45MzIsMjQuNjk2MDE0OCBDMTUuMDUsMjUuMTg4MDE0OCAxMiwyNi42NDgwMTQ4IDEyLDMwLjkzNjAxNDggQzEyLDMxLjA5NTAxNDggMTIuMDA5LDMxLjI1NTAxNDggMTIuMDE2LDMxLjQwNjAxNDggQzEyLjIxOCwzNS4wMjUwMTQ4IDE1Ljc2NSwzNi45ODYwMTQ4IDE5LjAwMiwzNi45OTMwMTQ4IEwxOS4wMDIsMzYuOTkzMDE0OCBaIiBpZD0iQVdTLUlBTS1JZGVudGl0eS1DZW50ZXJfSWNvbl80OF9TcXVpZCIgZmlsbD0iI0ZGRkZGRiI+PC9wYXRoPgogICAgPC9nPgo8L3N2Zz4=;points=[[0,0],[1,0],[1,1],[0,1],[0,0.167],[0.167,0],[1,0.167],[0.167,1],[0,0.333],[0.333,0],[1,0.333],[0.333,1],[0,0.5],[0.5,0],[1,0.5],[0.5,1],[0,0.667],[0.667,0],[1,0.667],[0.667,1],[0,0.833],[0.833,0],[1,0.833],[0.833,1]];fontSize=9;labelPosition=center;align=center;" vertex="1" parent="1">
          <mxGeometry x="-483" y="1080" width="30.5" height="30.5" as="geometry" />
        </mxCell>
        <mxCell id="jBiA-Ghh7BrdRVS92awE-35" value="Amazon &#xa;Cloudwatch" style="shape=image;verticalLabelPosition=top;verticalAlign=bottom;imageAspect=0;aspect=fixed;image=data:image/svg+xml,PD94bWwgdmVyc2lvbj0iMS4wIiBlbmNvZGluZz0iVVRGLTgiPz4KPHN2ZyB3aWR0aD0iNjRweCIgaGVpZ2h0PSI2NHB4IiB2aWV3Qm94PSIwIDAgNjQgNjQiIHZlcnNpb249IjEuMSIgeG1sbnM9Imh0dHA6Ly93d3cudzMub3JnLzIwMDAvc3ZnIiB4bWxuczp4bGluaz0iaHR0cDovL3d3dy53My5vcmcvMTk5OS94bGluayI+CiAgICA8dGl0bGU+SWNvbi1BcmNoaXRlY3R1cmUvNDgvQXJjaF9BbWF6b24tQ2xvdWRXYXRjaF80ODwvdGl0bGU+CiAgICA8ZyBpZD0iSWNvbi1BcmNoaXRlY3R1cmUvNDgvQXJjaF9BbWF6b24tQ2xvdWRXYXRjaF80OCIgc3Ryb2tlPSJub25lIiBzdHJva2Utd2lkdGg9IjEiIGZpbGw9Im5vbmUiIGZpbGwtcnVsZT0iZXZlbm9kZCI+CiAgICAgICAgPGcgaWQ9Ikljb24tQXJjaGl0ZWN0dXJlLUJHLzQ4L01hbmFnZW1lbnQtR292ZXJuYW5jZSIgZmlsbD0iI0U3MTU3QiI+CiAgICAgICAgICAgIDxyZWN0IGlkPSJSZWN0YW5nbGUiIHg9IjAiIHk9IjAiIHdpZHRoPSI2NCIgaGVpZ2h0PSI2NCI+PC9yZWN0PgogICAgICAgIDwvZz4KICAgICAgICA8cGF0aCBkPSJNNDIuMTg0LDM5LjM4MTEyMTYgQzQyLjE4NCwzNy4xMjgyNjk4IDQwLjM0NywzNS4yOTU0NTgxIDM4LjA4OSwzNS4yOTU0NTgxIEMzNS44MzEsMzUuMjk1NDU4MSAzMy45OTUsMzcuMTI4MjY5OCAzMy45OTUsMzkuMzgxMTIxNiBDMzMuOTk1LDQxLjYzMzk3MzUgMzUuODMxLDQzLjQ2Njc4NTIgMzguMDg5LDQzLjQ2Njc4NTIgQzQwLjM0Nyw0My40NjY3ODUyIDQyLjE4NCw0MS42MzM5NzM1IDQyLjE4NCwzOS4zODExMjE2IEw0Mi4xODQsMzkuMzgxMTIxNiBaIE00NC4xODQsMzkuMzgxMTIxNiBDNDQuMTg0LDQyLjczNDQ1ODcgNDEuNDUsNDUuNDYyMjI1MiAzOC4wODksNDUuNDYyMjI1MiBDMzQuNzI5LDQ1LjQ2MjIyNTIgMzEuOTk1LDQyLjczNDQ1ODcgMzEuOTk1LDM5LjM4MTEyMTYgQzMxLjk5NSwzNi4wMjc3ODQ2IDM0LjcyOSwzMy4zMDAwMTgxIDM4LjA4OSwzMy4zMDAwMTgxIEM0MS40NSwzMy4zMDAwMTgxIDQ0LjE4NCwzNi4wMjc3ODQ2IDQ0LjE4NCwzOS4zODExMjE2IEw0NC4xODQsMzkuMzgxMTIxNiBaIE01MC43NDMsNDkuNjE1NzMzNyBMNDUuODQ2LDQ1LjIxNTc4ODQgQzQ1LjUyNCw0NS42Mzk4MTk0IDQ1LjE3LDQ2LjAzNzkwOTcgNDQuNzg1LDQ2LjQwNTA3MDYgTDQ5LjY3MSw1MC44MDMwMjA1IEM0OS45OTcsNTEuMDk1MzUyNSA1MC41MDUsNTEuMDcxNDA3MiA1MC44MDIsNTAuNzQ0MTU1IEM1MS4wOTYsNTAuNDE3OTAwNiA1MS4wNyw0OS45MTEwNTg4IDUwLjc0Myw0OS42MTU3MzM3IEw1MC43NDMsNDkuNjE1NzMzNyBaIE0zOC4wODksNDcuMDkxNTAyIEM0Mi4zNTEsNDcuMDkxNTAyIDQ1LjgxOCw0My42MzI0MDY3IDQ1LjgxOCwzOS4zODExMjE2IEM0NS44MTgsMzUuMTI5ODM2NiA0Mi4zNTEsMzEuNjcwNzQxMyAzOC4wODksMzEuNjcwNzQxMyBDMzMuODI5LDMxLjY3MDc0MTMgMzAuMzYyLDM1LjEyOTgzNjYgMzAuMzYyLDM5LjM4MTEyMTYgQzMwLjM2Miw0My42MzI0MDY3IDMzLjgyOSw0Ny4wOTE1MDIgMzguMDg5LDQ3LjA5MTUwMiBMMzguMDg5LDQ3LjA5MTUwMiBaIE01Mi4wODEsNDguMTM0MTE5NCBDNTMuMjI3LDQ5LjE2Njc1OTcgNTMuMzE5LDUwLjkzNTcxNzMgNTIuMjg4LDUyLjA4MDEwMjEgQzUxLjczNSw1Mi42ODk3MDkxIDUwLjk3MSw1MyA1MC4yMDUsNTMgQzQ5LjUzOCw1MyA0OC44NjgsNTIuNzY1NTM1OCA0OC4zMzMsNTIuMjg2NjMwMiBMNDMuMTcyLDQ3LjY0MTI0NTcgQzQxLjY5MSw0OC41NTIxNjQxIDM5Ljk1NCw0OS4wODY5NDIxIDM4LjA4OSw0OS4wODY5NDIxIEMzMi43MjUsNDkuMDg2OTQyMSAyOC4zNjIsNDQuNzMyODkxOSAyOC4zNjIsMzkuMzgxMTIxNiBDMjguMzYyLDM0LjAyOTM1MTQgMzIuNzI1LDI5LjY3NTMwMTIgMzguMDg5LDI5LjY3NTMwMTIgQzQzLjQ1NCwyOS42NzUzMDEyIDQ3LjgxOCwzNC4wMjkzNTE0IDQ3LjgxOCwzOS4zODExMjE2IEM0Ny44MTgsNDAuODQ0Nzc2OSA0Ny40ODIsNDIuMjI4NjE0NiA0Ni44OTcsNDMuNDc1NzY0NiBMNTIuMDgxLDQ4LjEzNDExOTQgWiBNMTcuNjk3LDIzLjUzODMyNTQgQzE3LjY5NywyMy45Mzk0MDg4IDE3LjcyLDI0LjMzODQ5NjggMTcuNzY3LDI0LjcyMjYxOSBDMTcuODAyLDI1LjAwNTk3MTUgMTcuNzEzLDI1LjI5MTMxOTQgMTcuNTI0LDI1LjUwNDgzMTUgQzE3LjM3NSwyNS42NzE0NTA4IDE3LjE3NywyNS43ODMxOTU0IDE2Ljk2MSwyNS44MjQxMDE5IEMxNS4wODQsMjYuMzA3OTk2MSAxMiwyNy43NzE2NTE0IDEyLDMyLjE1NjYzMDkgQzEyLDM1LjQ4MDAzNjMgMTMuODM2LDM3LjMxMzg0NTggMTUuMzc3LDM4LjI2NzY2NjEgQzE2LjA0OSwzOC42ODk3MDE3IDE2LjY0LDM4LjkwNTIwOTIgMTcuMTM4LDM4LjkxMDE5NzggTDI2LjEyNywzOC45MTAxOTc4IEwyNi4xMjcsNDAuOTA1NjM3OCBMMTcuMTI3LDQwLjkwNTYzNzggQzE2LjI0Myw0MC44OTY2NTg0IDE1LjMsNDAuNTc3Mzg4IDE0LjMxNywzOS45NTg4MDE1IEMxMi43MDgsMzguOTY0MDc0NyAxMCwzNi42MjE0MjgxIDEwLDMyLjE1NjYzMDkgQzEwLDI2Ljg4NzY3MTUgMTMuNTI2LDI0Ljg2NDI5NTMgMTUuNzEsMjQuMTE3MDAzIEMxNS43MDIsMjMuOTI0NDQzIDE1LjY5NywyMy43MzA4ODUzIDE1LjY5NywyMy41MzgzMjU0IEMxNS42OTcsMTkuMTYwMzI5OSAxOC42NzMsMTQuNjIxNzAxNSAyMi42MjEsMTIuOTc4NDU2NiBDMjcuMjMyLDExLjA1MDg2MTUgMzIuMTE5LDEyLjAwNjY3NzMgMzUuNjg3LDE1LjUzMzYxNzYgQzM2LjczNCwxNi41NjcyNTU1IDM3LjYwNCwxNy44MDg0MTkyIDM4LjI4NSwxOS4yMzYxNTY2IEMzOS4yMDMsMTguNTUwNzIyOSA0MC4zMDQsMTguMTc0NTgyNSA0MS40NTksMTguMTc0NTgyNSBDNDMuODc0LDE4LjE3NDU4MjUgNDYuNTg3LDE5Ljk2ODQ4MzEgNDcuMTIyLDIzLjg4OTUyMjggQzUwLjU4LDI0LjcyMTYyMTMgNTQsMjcuMjc3NzggNTQsMzIuMjE3NDkxOSBDNTQsMzUuMTA3ODg2OCA1Mi44NjQsMzcuNDU2NTE5NyA1MC43MTMsMzkuMDA4OTcyMSBMNDkuNTQxLDM3LjM5MjY2NTYgQzUxLjE3MywzNi4yMTQzNTgzIDUyLDM0LjQ3MzMzNjggNTIsMzIuMjE3NDkxOSBDNTIsMjcuMjM4ODY4OSA0Ny44MTEsMjUuOTk5NzAwNyA0Ni4wMSwyNS42OTgzODkyIEM0NS43NDMsMjUuNjUzNDkxOCA0NS41MDUsMjUuNTAxODM4NCA0NS4zNTEsMjUuMjc5MzQ2OCBDNDUuMjA4LDI1LjA3MTgyMSA0NS4xNSwyNC44MTg0MDAxIDQ1LjE4NiwyNC41NzA5NjU2IEM0NC45MzEsMjEuNTMxOTEwNCA0My4xNDEsMjAuMTcwMDIyNSA0MS40NTksMjAuMTcwMDIyNSBDNDAuNDAyLDIwLjE3MDAyMjUgMzkuNDA5LDIwLjY4NTg0MzggMzguNzM0LDIxLjU4NTc4NzMgQzM4LjUxNCwyMS44NzkxMTY5IDM4LjE1NiwyMi4wMjk3NzI3IDM3Ljc4NiwyMS45NzQ4OTgxIEMzNy40MjIsMjEuOTIxMDIxMiAzNy4xMTgsMjEuNjcxNTkxMiAzNi45OTMsMjEuMzI2MzgwMSBDMzYuMzU5LDE5LjU3NDM4MzcgMzUuNDQ2LDE4LjEwMjc0NjYgMzQuMjgxLDE2Ljk1MTM3NzcgQzMyLjg1MSwxNS41Mzk2MDM5IDI4LjkzMywxMi41MDY1MzUgMjMuMzkxLDE0LjgxOTI1IEMyMC4xOTgsMTYuMTQ5MjEwOCAxNy42OTcsMTkuOTc4NDYwMyAxNy42OTcsMjMuNTM4MzI1NCBMMTcuNjk3LDIzLjUzODMyNTQgWiIgaWQ9IkFtYXpvbi1DbG91ZFdhdGNoX0ljb25fNDhfU3F1aWQiIGZpbGw9IiNGRkZGRkYiPjwvcGF0aD4KICAgIDwvZz4KPC9zdmc+;points=[[0,0],[1,0],[1,1],[0,1],[0,0.167],[0.167,0],[1,0.167],[0.167,1],[0,0.333],[0.333,0],[1,0.333],[0.333,1],[0,0.5],[0.5,0],[1,0.5],[0.5,1],[0,0.667],[0.667,0],[1,0.667],[0.667,1],[0,0.833],[0.833,0],[1,0.833],[0.833,1]];fontSize=9;labelPosition=center;align=center;" vertex="1" parent="1">
          <mxGeometry x="-433" y="1080.5" width="30" height="30" as="geometry" />
        </mxCell>
        <mxCell id="jBiA-Ghh7BrdRVS92awE-36" value="AWS&amp;nbsp;&lt;div&gt;Cloud Development Kit&lt;/div&gt;" style="sketch=0;points=[[0,0,0],[0.25,0,0],[0.5,0,0],[0.75,0,0],[1,0,0],[0,1,0],[0.25,1,0],[0.5,1,0],[0.75,1,0],[1,1,0],[0,0.25,0],[0,0.5,0],[0,0.75,0],[1,0.25,0],[1,0.5,0],[1,0.75,0]];outlineConnect=0;fontColor=#232F3E;fillColor=#C925D1;strokeColor=#ffffff;dashed=0;verticalLabelPosition=middle;verticalAlign=middle;align=right;html=1;fontSize=12;fontStyle=0;aspect=fixed;shape=mxgraph.aws4.resourceIcon;resIcon=mxgraph.aws4.cloud_development_kit;labelPosition=left;" vertex="1" parent="1">
          <mxGeometry x="-55" y="1124" width="32" height="32" as="geometry" />
        </mxCell>
      </root>
    </mxGraphModel>
  </diagram>
</mxfile>
